<?xml version="1.0" standalone="no"?>
<!DOCTYPE svg PUBLIC "-//W3C//DTD SVG 20010904//EN"
 "http://www.w3.org/TR/2001/REC-SVG-20010904/DTD/svg10.dtd">
<svg version="1.0" xmlns="http://www.w3.org/2000/svg"
 width="1280.000000pt" height="215.000000pt" viewBox="0 0 1280.000000 215.000000"
 preserveAspectRatio="xMidYMid meet">
<metadata>
Created by potrace 1.16, written by Peter Selinger 2001-2019
</metadata>
<g transform="translate(0.000000,215.000000) scale(0.100000,-0.100000)"
fill="#000000" stroke="none">
<path d="M510 1060 l0 -930 560 0 560 0 0 190 0 190 -370 0 -370 0 0 550 0
550 740 0 740 0 0 190 0 190 -930 0 -930 0 0 -930z"/>
<path d="M3395 1509 c-180 -27 -309 -117 -380 -264 -61 -126 -67 -308 -16
-446 44 -116 158 -223 290 -270 58 -21 83 -24 211 -24 152 0 209 10 328 57
l57 23 3 263 2 262 -190 0 -190 0 0 -105 0 -105 85 0 85 0 0 -70 c0 -66 -1
-70 -27 -84 -46 -23 -143 -39 -200 -32 -155 18 -253 135 -253 300 0 79 13 124
53 182 48 69 119 106 216 112 94 5 147 -8 205 -53 l45 -34 73 80 c40 44 74 84
76 89 6 18 -109 81 -181 99 -91 24 -215 32 -292 20z"/>
<path d="M4270 1150 c0 -319 1 -345 21 -403 36 -107 102 -177 207 -219 75 -30
269 -33 347 -5 103 36 194 133 228 242 8 28 12 141 12 380 l0 340 -112 3 -113
3 0 -318 c0 -287 -2 -322 -19 -358 -32 -70 -95 -115 -161 -115 -34 0 -91 22
-121 47 -66 56 -69 72 -69 426 l0 317 -110 0 -110 0 0 -340z"/>
<path d="M5470 1005 l0 -485 115 0 115 0 0 485 0 485 -115 0 -115 0 0 -485z"/>
<path d="M6080 1010 l0 -480 228 0 c255 0 315 9 416 63 84 44 165 127 206 210
30 60 34 80 38 170 10 230 -64 369 -243 453 -105 50 -194 63 -437 64 l-208 0
0 -480z m389 270 c178 -23 274 -116 275 -265 1 -88 -16 -137 -66 -191 -60 -65
-121 -87 -260 -92 l-118 -4 0 281 0 281 48 0 c26 0 80 -5 121 -10z"/>
<path d="M7320 1008 l0 -483 340 3 340 3 0 99 0 100 -230 0 -230 0 0 90 0 90
205 0 205 0 0 105 0 105 -205 0 -205 0 0 85 0 85 220 0 220 0 0 100 0 100
-330 0 -330 0 0 -482z"/>
<path d="M8280 1428 c10 -35 61 -214 115 -398 53 -184 106 -366 117 -405 10
-38 21 -78 24 -88 5 -16 17 -17 101 -15 l96 3 98 303 c53 167 100 311 104 320
8 19 15 0 140 -391 l77 -237 97 0 97 0 43 148 c24 81 63 215 87 297 24 83 68
233 98 335 l54 185 -110 3 c-61 1 -112 1 -113 0 -2 -2 -38 -141 -81 -309 l-78
-307 -32 102 c-18 55 -61 193 -97 306 l-65 205 -104 3 -103 3 -95 -295 c-52
-163 -96 -293 -99 -291 -2 3 -36 134 -75 292 l-72 288 -121 3 -120 3 17 -63z"/>
<path d="M9920 1005 l0 -485 110 0 110 0 0 485 0 485 -110 0 -110 0 0 -485z"/>
<path d="M10520 1011 l0 -481 115 0 115 0 0 190 0 190 44 0 45 0 98 -190 98
-190 133 0 c126 0 132 1 123 18 -6 10 -59 100 -119 199 l-109 181 40 12 c58
17 129 93 147 155 21 72 16 175 -10 230 -28 59 -96 117 -162 140 -45 16 -93
19 -305 23 l-253 4 0 -481z m420 278 c63 -14 90 -42 90 -94 0 -77 -55 -103
-217 -104 l-73 -1 0 105 0 105 78 0 c42 0 97 -5 122 -11z"/>
<path d="M11610 1008 l0 -483 340 0 340 0 0 103 0 102 -230 0 -230 0 0 90 0
90 210 0 210 0 0 105 0 105 -210 0 -210 0 0 85 0 85 220 0 220 0 0 100 0 100
-330 0 -330 0 0 -482z"/>
<path d="M1250 1060 l0 -190 370 0 370 0 0 -370 0 -370 190 0 190 0 0 560 0
560 -560 0 -560 0 0 -190z"/>
</g>
</svg>
